<svg xmlns="http://www.w3.org/2000/svg" width="1920" height="1080" viewBox="0 0 1920 1080">
  <rect width="1920" height="1080" fill="transparent"/>
  <defs>
    <filter id="glow" x="-100%" y="-100%" width="300%" height="300%">
      <feGaussianBlur stdDeviation="3" result="blur"/>
      <feMerge>
        <feMergeNode in="blur"/>
        <feMergeNode in="blur"/>
        <feMergeNode in="SourceGraphic"/>
      </feMerge>
    </filter>
    <filter id="glow-lg" x="-150%" y="-150%" width="400%" height="400%">
      <feGaussianBlur stdDeviation="5" result="blur"/>
      <feMerge>
        <feMergeNode in="blur"/>
        <feMergeNode in="blur"/>
        <feMergeNode in="blur"/>
        <feMergeNode in="SourceGraphic"/>
      </feMerge>
    </filter>
  </defs>

  <!-- Dust layer — tiny faint dots -->
  <circle cx="23" cy="18" r="0.4" fill="white" opacity="0.15"/>
  <circle cx="67" cy="52" r="0.3" fill="white" opacity="0.12"/>
  <circle cx="112" cy="8" r="0.4" fill="white" opacity="0.18"/>
  <circle cx="158" cy="74" r="0.3" fill="white" opacity="0.1"/>
  <circle cx="203" cy="41" r="0.5" fill="white" opacity="0.14"/>
  <circle cx="251" cy="92" r="0.3" fill="white" opacity="0.12"/>
  <circle cx="294" cy="26" r="0.4" fill="white" opacity="0.16"/>
  <circle cx="342" cy="68" r="0.3" fill="white" opacity="0.1"/>
  <circle cx="389" cy="14" r="0.5" fill="white" opacity="0.15"/>
  <circle cx="435" cy="85" r="0.3" fill="white" opacity="0.12"/>
  <circle cx="482" cy="38" r="0.4" fill="white" opacity="0.18"/>
  <circle cx="528" cy="96" r="0.3" fill="white" opacity="0.1"/>
  <circle cx="575" cy="22" r="0.5" fill="white" opacity="0.14"/>
  <circle cx="621" cy="78" r="0.3" fill="white" opacity="0.12"/>
  <circle cx="668" cy="44" r="0.4" fill="white" opacity="0.16"/>
  <circle cx="714" cy="12" r="0.3" fill="white" opacity="0.1"/>
  <circle cx="761" cy="88" r="0.5" fill="white" opacity="0.15"/>
  <circle cx="808" cy="56" r="0.3" fill="white" opacity="0.12"/>
  <circle cx="854" cy="32" r="0.4" fill="white" opacity="0.18"/>
  <circle cx="901" cy="72" r="0.3" fill="white" opacity="0.1"/>
  <circle cx="948" cy="16" r="0.5" fill="white" opacity="0.14"/>
  <circle cx="994" cy="94" r="0.3" fill="white" opacity="0.12"/>
  <circle cx="1041" cy="48" r="0.4" fill="white" opacity="0.16"/>
  <circle cx="1088" cy="82" r="0.3" fill="white" opacity="0.1"/>
  <circle cx="1134" cy="28" r="0.5" fill="white" opacity="0.15"/>
  <circle cx="1181" cy="66" r="0.3" fill="white" opacity="0.12"/>
  <circle cx="1228" cy="8" r="0.4" fill="white" opacity="0.18"/>
  <circle cx="1274" cy="90" r="0.3" fill="white" opacity="0.1"/>
  <circle cx="1321" cy="54" r="0.5" fill="white" opacity="0.14"/>
  <circle cx="1368" cy="36" r="0.3" fill="white" opacity="0.12"/>
  <circle cx="1414" cy="76" r="0.4" fill="white" opacity="0.16"/>
  <circle cx="1461" cy="20" r="0.3" fill="white" opacity="0.1"/>
  <circle cx="1508" cy="62" r="0.5" fill="white" opacity="0.15"/>
  <circle cx="1554" cy="98" r="0.3" fill="white" opacity="0.12"/>
  <circle cx="1601" cy="42" r="0.4" fill="white" opacity="0.18"/>
  <circle cx="1648" cy="80" r="0.3" fill="white" opacity="0.1"/>
  <circle cx="1694" cy="24" r="0.5" fill="white" opacity="0.14"/>
  <circle cx="1741" cy="58" r="0.3" fill="white" opacity="0.12"/>
  <circle cx="1788" cy="86" r="0.4" fill="white" opacity="0.16"/>
  <circle cx="1834" cy="10" r="0.3" fill="white" opacity="0.1"/>
  <circle cx="1881" cy="70" r="0.5" fill="white" opacity="0.15"/>
  <circle cx="1910" cy="46" r="0.3" fill="white" opacity="0.12"/>
  <circle cx="38" cy="148" r="0.4" fill="white" opacity="0.14"/>
  <circle cx="95" cy="172" r="0.3" fill="white" opacity="0.11"/>
  <circle cx="142" cy="128" r="0.5" fill="white" opacity="0.16"/>
  <circle cx="198" cy="198" r="0.3" fill="white" opacity="0.1"/>
  <circle cx="256" cy="162" r="0.4" fill="white" opacity="0.13"/>
  <circle cx="312" cy="138" r="0.3" fill="white" opacity="0.15"/>
  <circle cx="368" cy="188" r="0.5" fill="white" opacity="0.11"/>
  <circle cx="425" cy="152" r="0.3" fill="white" opacity="0.14"/>
  <circle cx="482" cy="178" r="0.4" fill="white" opacity="0.1"/>
  <circle cx="538" cy="142" r="0.3" fill="white" opacity="0.16"/>
  <circle cx="595" cy="118" r="0.5" fill="white" opacity="0.12"/>
  <circle cx="652" cy="192" r="0.3" fill="white" opacity="0.13"/>
  <circle cx="708" cy="158" r="0.4" fill="white" opacity="0.15"/>
  <circle cx="765" cy="132" r="0.3" fill="white" opacity="0.1"/>
  <circle cx="822" cy="182" r="0.5" fill="white" opacity="0.14"/>
  <circle cx="878" cy="108" r="0.3" fill="white" opacity="0.11"/>
  <circle cx="935" cy="168" r="0.4" fill="white" opacity="0.16"/>
  <circle cx="992" cy="148" r="0.3" fill="white" opacity="0.1"/>

  <!-- Dim stars — standard field -->
  <circle cx="45" cy="32" r="0.7" fill="white" opacity="0.3"/>
  <circle cx="132" cy="88" r="0.6" fill="white" opacity="0.25"/>
  <circle cx="210" cy="15" r="0.8" fill="white" opacity="0.35"/>
  <circle cx="298" cy="145" r="0.6" fill="white" opacity="0.2"/>
  <circle cx="365" cy="62" r="0.7" fill="white" opacity="0.3"/>
  <circle cx="440" cy="210" r="0.6" fill="white" opacity="0.25"/>
  <circle cx="520" cy="38" r="0.8" fill="white" opacity="0.3"/>
  <circle cx="595" cy="175" r="0.6" fill="white" opacity="0.2"/>
  <circle cx="670" cy="95" r="0.7" fill="white" opacity="0.35"/>
  <circle cx="748" cy="280" r="0.6" fill="white" opacity="0.25"/>
  <circle cx="825" cy="48" r="0.7" fill="white" opacity="0.3"/>
  <circle cx="903" cy="195" r="0.6" fill="white" opacity="0.2"/>
  <circle cx="978" cy="125" r="0.6" fill="white" opacity="0.3"/>
  <circle cx="1055" cy="310" r="0.8" fill="white" opacity="0.25"/>
  <circle cx="1130" cy="72" r="0.7" fill="white" opacity="0.3"/>
  <circle cx="1208" cy="240" r="0.6" fill="white" opacity="0.2"/>
  <circle cx="1285" cy="55" r="0.6" fill="white" opacity="0.35"/>
  <circle cx="1360" cy="185" r="0.8" fill="white" opacity="0.25"/>
  <circle cx="1438" cy="108" r="0.7" fill="white" opacity="0.3"/>
  <circle cx="1515" cy="265" r="0.6" fill="white" opacity="0.2"/>
  <circle cx="1590" cy="42" r="0.6" fill="white" opacity="0.3"/>
  <circle cx="1668" cy="155" r="0.8" fill="white" opacity="0.25"/>
  <circle cx="1745" cy="85" r="0.7" fill="white" opacity="0.3"/>
  <circle cx="1820" cy="220" r="0.6" fill="white" opacity="0.2"/>
  <circle cx="1895" cy="68" r="0.6" fill="white" opacity="0.35"/>

  <!-- Row 2 dim -->
  <circle cx="78" cy="380" r="0.6" fill="white" opacity="0.25"/>
  <circle cx="155" cy="425" r="0.8" fill="white" opacity="0.3"/>
  <circle cx="240" cy="350" r="0.6" fill="white" opacity="0.2"/>
  <circle cx="318" cy="468" r="0.7" fill="white" opacity="0.3"/>
  <circle cx="395" cy="395" r="0.6" fill="white" opacity="0.25"/>
  <circle cx="472" cy="510" r="0.6" fill="white" opacity="0.3"/>
  <circle cx="550" cy="365" r="0.8" fill="white" opacity="0.2"/>
  <circle cx="628" cy="445" r="0.6" fill="white" opacity="0.35"/>
  <circle cx="705" cy="520" r="0.7" fill="white" opacity="0.25"/>
  <circle cx="782" cy="385" r="0.6" fill="white" opacity="0.3"/>
  <circle cx="860" cy="475" r="0.8" fill="white" opacity="0.2"/>
  <circle cx="938" cy="410" r="0.6" fill="white" opacity="0.3"/>
  <circle cx="1015" cy="540" r="0.7" fill="white" opacity="0.25"/>
  <circle cx="1092" cy="365" r="0.6" fill="white" opacity="0.3"/>
  <circle cx="1170" cy="490" r="0.8" fill="white" opacity="0.2"/>
  <circle cx="1248" cy="420" r="0.6" fill="white" opacity="0.35"/>
  <circle cx="1325" cy="380" r="0.7" fill="white" opacity="0.25"/>
  <circle cx="1402" cy="530" r="0.6" fill="white" opacity="0.3"/>
  <circle cx="1480" cy="450" r="0.8" fill="white" opacity="0.2"/>
  <circle cx="1558" cy="395" r="0.6" fill="white" opacity="0.3"/>
  <circle cx="1635" cy="510" r="0.7" fill="white" opacity="0.25"/>
  <circle cx="1712" cy="440" r="0.6" fill="white" opacity="0.3"/>
  <circle cx="1790" cy="375" r="0.8" fill="white" opacity="0.2"/>
  <circle cx="1868" cy="485" r="0.6" fill="white" opacity="0.35"/>

  <!-- Row 3 dim -->
  <circle cx="60" cy="620" r="0.7" fill="white" opacity="0.3"/>
  <circle cx="148" cy="695" r="0.6" fill="white" opacity="0.25"/>
  <circle cx="225" cy="580" r="0.8" fill="white" opacity="0.2"/>
  <circle cx="305" cy="740" r="0.6" fill="white" opacity="0.3"/>
  <circle cx="382" cy="650" r="0.7" fill="white" opacity="0.25"/>
  <circle cx="460" cy="710" r="0.6" fill="white" opacity="0.3"/>
  <circle cx="538" cy="595" r="0.8" fill="white" opacity="0.2"/>
  <circle cx="615" cy="760" r="0.6" fill="white" opacity="0.35"/>
  <circle cx="692" cy="670" r="0.7" fill="white" opacity="0.25"/>
  <circle cx="770" cy="615" r="0.6" fill="white" opacity="0.3"/>
  <circle cx="848" cy="730" r="0.8" fill="white" opacity="0.2"/>
  <circle cx="925" cy="585" r="0.6" fill="white" opacity="0.3"/>
  <circle cx="1002" cy="695" r="0.7" fill="white" opacity="0.25"/>
  <circle cx="1080" cy="640" r="0.6" fill="white" opacity="0.3"/>
  <circle cx="1158" cy="755" r="0.8" fill="white" opacity="0.2"/>
  <circle cx="1235" cy="610" r="0.6" fill="white" opacity="0.35"/>
  <circle cx="1312" cy="720" r="0.7" fill="white" opacity="0.25"/>
  <circle cx="1390" cy="665" r="0.6" fill="white" opacity="0.3"/>
  <circle cx="1468" cy="590" r="0.8" fill="white" opacity="0.2"/>
  <circle cx="1545" cy="740" r="0.6" fill="white" opacity="0.3"/>
  <circle cx="1622" cy="680" r="0.7" fill="white" opacity="0.25"/>
  <circle cx="1700" cy="615" r="0.6" fill="white" opacity="0.3"/>
  <circle cx="1778" cy="750" r="0.8" fill="white" opacity="0.2"/>
  <circle cx="1855" cy="635" r="0.6" fill="white" opacity="0.35"/>

  <!-- Row 4 dim -->
  <circle cx="88" cy="830" r="0.6" fill="white" opacity="0.25"/>
  <circle cx="175" cy="905" r="0.7" fill="white" opacity="0.3"/>
  <circle cx="262" cy="860" r="0.6" fill="white" opacity="0.2"/>
  <circle cx="350" cy="945" r="0.8" fill="white" opacity="0.3"/>
  <circle cx="438" cy="815" r="0.6" fill="white" opacity="0.25"/>
  <circle cx="525" cy="890" r="0.7" fill="white" opacity="0.3"/>
  <circle cx="612" cy="960" r="0.6" fill="white" opacity="0.2"/>
  <circle cx="700" cy="840" r="0.8" fill="white" opacity="0.35"/>
  <circle cx="788" cy="920" r="0.6" fill="white" opacity="0.25"/>
  <circle cx="875" cy="855" r="0.7" fill="white" opacity="0.3"/>
  <circle cx="962" cy="980" r="0.6" fill="white" opacity="0.2"/>
  <circle cx="1050" cy="825" r="0.8" fill="white" opacity="0.3"/>
  <circle cx="1138" cy="910" r="0.6" fill="white" opacity="0.25"/>
  <circle cx="1225" cy="870" r="0.7" fill="white" opacity="0.3"/>
  <circle cx="1312" cy="955" r="0.6" fill="white" opacity="0.2"/>
  <circle cx="1400" cy="835" r="0.8" fill="white" opacity="0.35"/>
  <circle cx="1488" cy="890" r="0.6" fill="white" opacity="0.25"/>
  <circle cx="1575" cy="960" r="0.7" fill="white" opacity="0.3"/>
  <circle cx="1662" cy="825" r="0.6" fill="white" opacity="0.2"/>
  <circle cx="1750" cy="905" r="0.8" fill="white" opacity="0.3"/>
  <circle cx="1838" cy="870" r="0.6" fill="white" opacity="0.25"/>

  <!-- Extra scatter — fill the gaps -->
  <circle cx="52" cy="248" r="0.6" fill="white" opacity="0.22"/>
  <circle cx="118" cy="302" r="0.5" fill="white" opacity="0.18"/>
  <circle cx="186" cy="268" r="0.7" fill="white" opacity="0.24"/>
  <circle cx="274" cy="232" r="0.5" fill="white" opacity="0.16"/>
  <circle cx="348" cy="298" r="0.6" fill="white" opacity="0.2"/>
  <circle cx="422" cy="258" r="0.5" fill="white" opacity="0.22"/>
  <circle cx="498" cy="322" r="0.7" fill="white" opacity="0.18"/>
  <circle cx="568" cy="242" r="0.5" fill="white" opacity="0.24"/>
  <circle cx="642" cy="312" r="0.6" fill="white" opacity="0.16"/>
  <circle cx="718" cy="252" r="0.5" fill="white" opacity="0.2"/>
  <circle cx="792" cy="288" r="0.7" fill="white" opacity="0.22"/>
  <circle cx="868" cy="238" r="0.5" fill="white" opacity="0.18"/>
  <circle cx="942" cy="318" r="0.6" fill="white" opacity="0.24"/>
  <circle cx="1018" cy="262" r="0.5" fill="white" opacity="0.16"/>
  <circle cx="1098" cy="292" r="0.7" fill="white" opacity="0.2"/>
  <circle cx="1168" cy="248" r="0.5" fill="white" opacity="0.22"/>
  <circle cx="1242" cy="328" r="0.6" fill="white" opacity="0.18"/>
  <circle cx="1318" cy="258" r="0.5" fill="white" opacity="0.24"/>
  <circle cx="1392" cy="282" r="0.7" fill="white" opacity="0.16"/>
  <circle cx="1468" cy="312" r="0.5" fill="white" opacity="0.2"/>
  <circle cx="1542" cy="248" r="0.6" fill="white" opacity="0.22"/>
  <circle cx="1618" cy="272" r="0.5" fill="white" opacity="0.18"/>
  <circle cx="1692" cy="338" r="0.7" fill="white" opacity="0.24"/>
  <circle cx="1768" cy="262" r="0.5" fill="white" opacity="0.16"/>
  <circle cx="1842" cy="308" r="0.6" fill="white" opacity="0.2"/>
  <circle cx="1908" cy="252" r="0.5" fill="white" opacity="0.22"/>

  <circle cx="35" cy="548" r="0.5" fill="white" opacity="0.18"/>
  <circle cx="108" cy="572" r="0.6" fill="white" opacity="0.22"/>
  <circle cx="188" cy="532" r="0.5" fill="white" opacity="0.16"/>
  <circle cx="268" cy="568" r="0.7" fill="white" opacity="0.2"/>
  <circle cx="348" cy="542" r="0.5" fill="white" opacity="0.24"/>
  <circle cx="428" cy="578" r="0.6" fill="white" opacity="0.18"/>
  <circle cx="508" cy="552" r="0.5" fill="white" opacity="0.22"/>
  <circle cx="588" cy="538" r="0.7" fill="white" opacity="0.16"/>
  <circle cx="668" cy="572" r="0.5" fill="white" opacity="0.2"/>
  <circle cx="748" cy="548" r="0.6" fill="white" opacity="0.24"/>
  <circle cx="828" cy="562" r="0.5" fill="white" opacity="0.18"/>
  <circle cx="908" cy="542" r="0.7" fill="white" opacity="0.22"/>
  <circle cx="988" cy="578" r="0.5" fill="white" opacity="0.16"/>
  <circle cx="1068" cy="552" r="0.6" fill="white" opacity="0.2"/>
  <circle cx="1148" cy="538" r="0.5" fill="white" opacity="0.24"/>
  <circle cx="1228" cy="572" r="0.7" fill="white" opacity="0.18"/>
  <circle cx="1308" cy="548" r="0.5" fill="white" opacity="0.22"/>
  <circle cx="1388" cy="562" r="0.6" fill="white" opacity="0.16"/>
  <circle cx="1468" cy="542" r="0.5" fill="white" opacity="0.2"/>
  <circle cx="1548" cy="578" r="0.7" fill="white" opacity="0.24"/>
  <circle cx="1628" cy="552" r="0.5" fill="white" opacity="0.18"/>
  <circle cx="1708" cy="538" r="0.6" fill="white" opacity="0.22"/>
  <circle cx="1788" cy="572" r="0.5" fill="white" opacity="0.16"/>
  <circle cx="1868" cy="548" r="0.7" fill="white" opacity="0.2"/>

  <circle cx="42" cy="778" r="0.6" fill="white" opacity="0.2"/>
  <circle cx="128" cy="802" r="0.5" fill="white" opacity="0.16"/>
  <circle cx="215" cy="768" r="0.7" fill="white" opacity="0.22"/>
  <circle cx="302" cy="798" r="0.5" fill="white" opacity="0.18"/>
  <circle cx="388" cy="772" r="0.6" fill="white" opacity="0.24"/>
  <circle cx="475" cy="808" r="0.5" fill="white" opacity="0.16"/>
  <circle cx="562" cy="782" r="0.7" fill="white" opacity="0.2"/>
  <circle cx="648" cy="798" r="0.5" fill="white" opacity="0.22"/>
  <circle cx="735" cy="768" r="0.6" fill="white" opacity="0.18"/>
  <circle cx="822" cy="808" r="0.5" fill="white" opacity="0.24"/>
  <circle cx="908" cy="778" r="0.7" fill="white" opacity="0.16"/>
  <circle cx="995" cy="802" r="0.5" fill="white" opacity="0.2"/>
  <circle cx="1082" cy="772" r="0.6" fill="white" opacity="0.22"/>
  <circle cx="1168" cy="808" r="0.5" fill="white" opacity="0.18"/>
  <circle cx="1255" cy="782" r="0.7" fill="white" opacity="0.24"/>
  <circle cx="1342" cy="798" r="0.5" fill="white" opacity="0.16"/>
  <circle cx="1428" cy="768" r="0.6" fill="white" opacity="0.2"/>
  <circle cx="1515" cy="808" r="0.5" fill="white" opacity="0.22"/>
  <circle cx="1602" cy="778" r="0.7" fill="white" opacity="0.18"/>
  <circle cx="1688" cy="802" r="0.5" fill="white" opacity="0.24"/>
  <circle cx="1775" cy="772" r="0.6" fill="white" opacity="0.16"/>
  <circle cx="1862" cy="808" r="0.5" fill="white" opacity="0.2"/>

  <circle cx="68" cy="1008" r="0.5" fill="white" opacity="0.18"/>
  <circle cx="165" cy="1032" r="0.6" fill="white" opacity="0.22"/>
  <circle cx="262" cy="1018" r="0.5" fill="white" opacity="0.16"/>
  <circle cx="358" cy="1042" r="0.7" fill="white" opacity="0.2"/>
  <circle cx="455" cy="1012" r="0.5" fill="white" opacity="0.24"/>
  <circle cx="552" cy="1038" r="0.6" fill="white" opacity="0.18"/>
  <circle cx="648" cy="1022" r="0.5" fill="white" opacity="0.16"/>
  <circle cx="745" cy="1048" r="0.7" fill="white" opacity="0.22"/>
  <circle cx="842" cy="1008" r="0.5" fill="white" opacity="0.2"/>
  <circle cx="938" cy="1035" r="0.6" fill="white" opacity="0.18"/>
  <circle cx="1035" cy="1018" r="0.5" fill="white" opacity="0.24"/>
  <circle cx="1132" cy="1042" r="0.7" fill="white" opacity="0.16"/>
  <circle cx="1228" cy="1012" r="0.5" fill="white" opacity="0.2"/>
  <circle cx="1325" cy="1038" r="0.6" fill="white" opacity="0.22"/>
  <circle cx="1422" cy="1022" r="0.5" fill="white" opacity="0.18"/>
  <circle cx="1518" cy="1048" r="0.7" fill="white" opacity="0.16"/>
  <circle cx="1615" cy="1008" r="0.5" fill="white" opacity="0.2"/>
  <circle cx="1712" cy="1035" r="0.6" fill="white" opacity="0.24"/>
  <circle cx="1808" cy="1018" r="0.5" fill="white" opacity="0.18"/>
  <circle cx="1905" cy="1042" r="0.7" fill="white" opacity="0.16"/>

  <!-- ★ Glowing stars — bright with glow filter ★ -->
  <circle cx="142" cy="65" r="1.6" fill="white" opacity="0.8" filter="url(#glow)"/>
  <circle cx="380" cy="120" r="1.3" fill="white" opacity="0.65" filter="url(#glow)"/>
  <circle cx="590" cy="42" r="1.5" fill="white" opacity="0.75" filter="url(#glow)"/>
  <circle cx="820" cy="155" r="1.8" fill="white" opacity="0.85" filter="url(#glow)"/>
  <circle cx="1060" cy="80" r="1.4" fill="white" opacity="0.7" filter="url(#glow)"/>
  <circle cx="1290" cy="135" r="1.6" fill="white" opacity="0.8" filter="url(#glow)"/>
  <circle cx="1520" cy="58" r="1.3" fill="white" opacity="0.65" filter="url(#glow)"/>
  <circle cx="1740" cy="110" r="1.7" fill="white" opacity="0.75" filter="url(#glow)"/>
  <circle cx="1900" cy="28" r="1.4" fill="white" opacity="0.7" filter="url(#glow)"/>

  <circle cx="95" cy="290" r="1.5" fill="white" opacity="0.75" filter="url(#glow)"/>
  <circle cx="330" cy="245" r="1.3" fill="white" opacity="0.65" filter="url(#glow)"/>
  <circle cx="560" cy="310" r="1.7" fill="white" opacity="0.8" filter="url(#glow)"/>
  <circle cx="780" cy="270" r="1.4" fill="white" opacity="0.7" filter="url(#glow)"/>
  <circle cx="1010" cy="335" r="1.6" fill="white" opacity="0.75" filter="url(#glow)"/>
  <circle cx="1240" cy="255" r="1.3" fill="white" opacity="0.65" filter="url(#glow)"/>
  <circle cx="1470" cy="300" r="1.8" fill="white" opacity="0.85" filter="url(#glow)"/>
  <circle cx="1700" cy="280" r="1.4" fill="white" opacity="0.7" filter="url(#glow)"/>
  <circle cx="1880" cy="325" r="1.5" fill="white" opacity="0.75" filter="url(#glow)"/>

  <circle cx="72" cy="460" r="1.4" fill="white" opacity="0.7" filter="url(#glow)"/>
  <circle cx="310" cy="500" r="1.6" fill="white" opacity="0.8" filter="url(#glow)"/>
  <circle cx="540" cy="435" r="1.3" fill="white" opacity="0.65" filter="url(#glow)"/>
  <circle cx="770" cy="490" r="1.7" fill="white" opacity="0.75" filter="url(#glow)"/>
  <circle cx="1000" cy="450" r="1.4" fill="white" opacity="0.7" filter="url(#glow)"/>
  <circle cx="1230" cy="510" r="1.5" fill="white" opacity="0.8" filter="url(#glow)"/>
  <circle cx="1460" cy="470" r="1.3" fill="white" opacity="0.65" filter="url(#glow)"/>
  <circle cx="1690" cy="495" r="1.8" fill="white" opacity="0.85" filter="url(#glow)"/>
  <circle cx="1870" cy="440" r="1.4" fill="white" opacity="0.7" filter="url(#glow)"/>

  <circle cx="55" cy="660" r="1.5" fill="white" opacity="0.75" filter="url(#glow)"/>
  <circle cx="285" cy="700" r="1.3" fill="white" opacity="0.65" filter="url(#glow)"/>
  <circle cx="515" cy="640" r="1.7" fill="white" opacity="0.8" filter="url(#glow)"/>
  <circle cx="745" cy="720" r="1.4" fill="white" opacity="0.7" filter="url(#glow)"/>
  <circle cx="975" cy="655" r="1.6" fill="white" opacity="0.75" filter="url(#glow)"/>
  <circle cx="1205" cy="695" r="1.3" fill="white" opacity="0.65" filter="url(#glow)"/>
  <circle cx="1435" cy="670" r="1.8" fill="white" opacity="0.85" filter="url(#glow)"/>
  <circle cx="1665" cy="730" r="1.4" fill="white" opacity="0.7" filter="url(#glow)"/>
  <circle cx="1850" cy="650" r="1.5" fill="white" opacity="0.75" filter="url(#glow)"/>

  <circle cx="110" cy="870" r="1.4" fill="white" opacity="0.7" filter="url(#glow)"/>
  <circle cx="340" cy="910" r="1.6" fill="white" opacity="0.8" filter="url(#glow)"/>
  <circle cx="570" cy="855" r="1.3" fill="white" opacity="0.65" filter="url(#glow)"/>
  <circle cx="800" cy="940" r="1.7" fill="white" opacity="0.75" filter="url(#glow)"/>
  <circle cx="1030" cy="880" r="1.4" fill="white" opacity="0.7" filter="url(#glow)"/>
  <circle cx="1260" cy="935" r="1.5" fill="white" opacity="0.8" filter="url(#glow)"/>
  <circle cx="1490" cy="860" r="1.3" fill="white" opacity="0.65" filter="url(#glow)"/>
  <circle cx="1720" cy="920" r="1.8" fill="white" opacity="0.85" filter="url(#glow)"/>
  <circle cx="1895" cy="895" r="1.4" fill="white" opacity="0.7" filter="url(#glow)"/>

  <circle cx="48" cy="1050" r="1.5" fill="white" opacity="0.75" filter="url(#glow)"/>
  <circle cx="380" cy="1030" r="1.3" fill="white" opacity="0.65" filter="url(#glow)"/>
  <circle cx="720" cy="1060" r="1.6" fill="white" opacity="0.8" filter="url(#glow)"/>
  <circle cx="1060" cy="1040" r="1.4" fill="white" opacity="0.7" filter="url(#glow)"/>
  <circle cx="1400" cy="1055" r="1.7" fill="white" opacity="0.75" filter="url(#glow)"/>
  <circle cx="1740" cy="1035" r="1.3" fill="white" opacity="0.65" filter="url(#glow)"/>

  <!-- ★★ Bright feature stars — large glow ★★ -->
  <circle cx="234" cy="168" r="2.2" fill="white" opacity="0.9" filter="url(#glow-lg)"/>
  <circle cx="867" cy="52" r="2.5" fill="white" opacity="0.95" filter="url(#glow-lg)"/>
  <circle cx="1456" cy="195" r="2.2" fill="white" opacity="0.9" filter="url(#glow-lg)"/>
  <circle cx="480" cy="380" r="2.4" fill="white" opacity="0.92" filter="url(#glow-lg)"/>
  <circle cx="1120" cy="420" r="2.2" fill="white" opacity="0.9" filter="url(#glow-lg)"/>
  <circle cx="1780" cy="360" r="2.5" fill="white" opacity="0.95" filter="url(#glow-lg)"/>
  <circle cx="190" cy="580" r="2.3" fill="white" opacity="0.9" filter="url(#glow-lg)"/>
  <circle cx="920" cy="610" r="2.5" fill="white" opacity="0.95" filter="url(#glow-lg)"/>
  <circle cx="1600" cy="560" r="2.2" fill="white" opacity="0.9" filter="url(#glow-lg)"/>
  <circle cx="400" cy="750" r="2.4" fill="white" opacity="0.92" filter="url(#glow-lg)"/>
  <circle cx="1150" cy="780" r="2.5" fill="white" opacity="0.95" filter="url(#glow-lg)"/>
  <circle cx="1850" cy="710" r="2.2" fill="white" opacity="0.9" filter="url(#glow-lg)"/>
  <circle cx="680" cy="950" r="2.3" fill="white" opacity="0.9" filter="url(#glow-lg)"/>
  <circle cx="1350" cy="980" r="2.5" fill="white" opacity="0.95" filter="url(#glow-lg)"/>

  <!-- ★★★ Hero anchor stars — maximum glow ★★★ -->
  <circle cx="960" cy="320" r="3" fill="white" opacity="1" filter="url(#glow-lg)">
    <animate attributeName="opacity" values="0.7;1;0.7" dur="4s" repeatCount="indefinite"/>
  </circle>
  <circle cx="320" cy="180" r="2.8" fill="white" opacity="1" filter="url(#glow-lg)">
    <animate attributeName="opacity" values="0.65;0.95;0.65" dur="5s" repeatCount="indefinite"/>
  </circle>
  <circle cx="1600" cy="150" r="2.8" fill="white" opacity="1" filter="url(#glow-lg)">
    <animate attributeName="opacity" values="0.6;0.9;0.6" dur="6s" repeatCount="indefinite"/>
  </circle>
  <circle cx="500" cy="680" r="2.6" fill="white" opacity="1" filter="url(#glow-lg)">
    <animate attributeName="opacity" values="0.7;1;0.7" dur="5.5s" repeatCount="indefinite"/>
  </circle>
  <circle cx="1400" cy="600" r="2.8" fill="white" opacity="1" filter="url(#glow-lg)">
    <animate attributeName="opacity" values="0.65;0.95;0.65" dur="4.5s" repeatCount="indefinite"/>
  </circle>
  <circle cx="150" cy="900" r="2.6" fill="white" opacity="1" filter="url(#glow-lg)">
    <animate attributeName="opacity" values="0.6;0.9;0.6" dur="5s" repeatCount="indefinite"/>
  </circle>
  <circle cx="1800" cy="880" r="2.8" fill="white" opacity="1" filter="url(#glow-lg)">
    <animate attributeName="opacity" values="0.7;1;0.7" dur="6s" repeatCount="indefinite"/>
  </circle>
  <circle cx="960" cy="1000" r="2.6" fill="white" opacity="1" filter="url(#glow-lg)">
    <animate attributeName="opacity" values="0.65;0.95;0.65" dur="4s" repeatCount="indefinite"/>
  </circle>
</svg>
